<?xml version="1.0" encoding="UTF-8" standalone="no"?>
<!-- Created with Inkscape (http://www.inkscape.org/) -->

<svg
   xmlns:dc="http://purl.org/dc/elements/1.1/"
   xmlns:cc="http://creativecommons.org/ns#"
   xmlns:rdf="http://www.w3.org/1999/02/22-rdf-syntax-ns#"
   xmlns:svg="http://www.w3.org/2000/svg"
   xmlns="http://www.w3.org/2000/svg"
   xmlns:sodipodi="http://sodipodi.sourceforge.net/DTD/sodipodi-0.dtd"
   xmlns:inkscape="http://www.inkscape.org/namespaces/inkscape"
   id="svg2"
   version="1.1"
   inkscape:version="0.91 r13725"
   width="640"
   height="640"
   viewBox="0 0 640 640"
   sodipodi:docname="cup.svg">
  <metadata
     id="metadata8">
    <rdf:RDF>
      <cc:Work
         rdf:about="">
        <dc:format>image/svg+xml</dc:format>
        <dc:type
           rdf:resource="http://purl.org/dc/dcmitype/StillImage" />
        <dc:title></dc:title>
      </cc:Work>
    </rdf:RDF>
  </metadata>
  <defs
     id="defs6" />
  <sodipodi:namedview
     pagecolor="#ffffff"
     bordercolor="#666666"
     borderopacity="1"
     objecttolerance="10"
     gridtolerance="10"
     guidetolerance="10"
     inkscape:pageopacity="0"
     inkscape:pageshadow="2"
     inkscape:window-width="1920"
     inkscape:window-height="1015"
     id="namedview4"
     showgrid="false"
     fit-margin-top="0"
     fit-margin-left="0"
     fit-margin-right="0"
     fit-margin-bottom="0"
     inkscape:zoom="0.36875"
     inkscape:cx="-85.675365"
     inkscape:cy="320"
     inkscape:window-x="0"
     inkscape:window-y="0"
     inkscape:window-maximized="1"
     inkscape:current-layer="svg2" />
  <path
     style="fill:#000000"
     d="m 189.90938,638.85757 c -26.46558,-3.64646 -53.0161,-9.40997 -68.27923,-14.82184 -28.423363,-10.07811 -45.159683,-21.9479 -67.339093,-47.75845 -6.51146,-7.57751 -15.7607,-18.13797 -20.553861,-23.4677 -9.44059,-10.49741 -11.11918,-14.27774 -8.81253,-19.84649 0.68427,-1.65197 2.57313,-4.12187 4.19747,-5.48866 l 2.95334,-2.48508 275.836424,0.25533 275.83641,0.25532 2.59177,2.43487 c 3.36617,3.16239 4.84741,8.60863 3.56113,13.09361 -0.60975,2.12607 -3.95345,6.45234 -8.84555,11.44485 C 576.72978,556.888 568.12374,566.125 561.93111,573 c -12.94116,14.36717 -25.67407,26.15765 -35.02173,32.42961 -21.15841,14.19655 -50.90506,24.30329 -92.67453,31.48716 L 416.30788,640 306.35863,639.87657 c -60.47209,-0.0679 -112.87425,-0.52644 -116.44925,-1.019 z M 128.23566,495.25 C 116.95621,478.29295 110.34689,466.36791 102.85223,449.45126 81.069467,400.28407 70.357497,340.75124 69.634667,264.84127 c -0.21547,-22.62713 -0.134,-23.78262 1.86837,-26.5 1.15152,-1.5627 3.62652,-3.37837 5.5,-4.03483 4.52103,-1.58414 452.430733,-1.84398 458.113243,-0.26576 6.12376,1.70077 8.22895,5.74869 8.6361,16.60572 l 0.343,9.14639 5.657,0.68113 c 7.93575,0.95551 21.60775,5.68089 29.04059,10.03716 7.81067,4.57771 18.92573,14.96195 24.74732,23.12017 13.15388,18.43351 20.63496,47.34504 18.95893,73.26903 -3.83008,59.24189 -40.16995,110.63853 -87.76347,124.1267 -13.37039,3.78921 -34.73937,3.55746 -44.91843,-0.48715 -1.17779,-0.46798 -3.38963,1.84624 -8.5,8.89345 l -6.90794,9.52605 -168.51376,0.0203 -168.51376,0.0203 -9.1462,-13.75 z m 395.17372,-37.44245 c 6.05101,-1.50182 16.49685,-7.30893 22.92656,-12.74546 15.73014,-13.30033 28.06194,-34.11765 34.2094,-57.74891 3.70713,-14.25045 4.33584,-34.09974 1.51168,-47.72595 -2.7412,-13.22597 -8.37122,-24.87331 -15.77519,-32.63561 C 560.25525,300.63338 550.61135,295 545.82161,295 c -3.18442,0 -2.96516,-1.15913 -4.91817,26 -3.50741,48.7752 -13.82736,92.99006 -29.61811,126.89607 -2.40677,5.16784 -4.37595,9.74905 -4.37595,10.18045 0,1.90135 8.30074,1.76604 16.5,-0.26897 z M 307.79981,216.25435 C 298.80011,208.6816 285.49383,185.96843 282.4597,173 c -1.96272,-8.38902 -1.96361,-20.61639 -0.002,-28.1863 3.45217,-13.32239 8.08178,-20.93467 26.95695,-44.32426 6.66236,-8.255809 13.43669,-17.705809 15.05407,-21.000001 2.60204,-5.299668 2.93784,-7.02592 2.91584,-14.989439 -0.0225,-8.159713 -0.33288,-9.613923 -3.32394,-15.575499 -3.18531,-6.348764 -8.26762,-13.516818 -16.6512,-23.484742 -3.56034,-4.233174 -4,-5.335872 -4,-10.03218 0,-4.469989 0.44699,-5.7428155 2.92516,-8.3294635 3.16185,-3.300258 7.94322,-4.704442 12.29765,-3.611549 5.40955,1.357711 20.8881,20.6434305 27.22536,33.9218285 6.71145,14.062443 8.49026,26.883038 5.49387,39.59644 -3.09476,13.130786 -9.07645,22.872819 -28.8677,47.015165 -4.96903,6.06147 -10.39157,14.05 -12.82782,18.89806 -3.87717,7.71542 -4.21671,9.01597 -4.17718,16 0.035,6.17951 0.61166,8.93282 3.08206,14.71462 2.64973,6.20152 5.36586,10.50948 16.0986,25.53347 2.72543,3.81514 3.01461,10.75728 0.6015,14.44015 -3.84994,5.87575 -12.14298,7.14293 -17.46107,2.66805 z m 62.5039,0.84438 c -4.6084,-2.81013 -14.90684,-17.22218 -20.43585,-28.59873 -13.3524,-27.47403 -9.61331,-50.12107 12.85535,-77.86271 16.99911,-20.988486 20.02649,-25.08427 23.19911,-31.386322 2.95272,-5.865263 3.40117,-7.734944 3.41814,-14.250968 0.0167,-6.400294 -0.45699,-8.513892 -3.23033,-14.414753 -3.60592,-7.672328 -8.03251,-14.217526 -15.42273,-22.804178 -5.92064,-6.879154 -7.31413,-10.99644 -5.54172,-16.373901 2.41925,-7.3399755 10.8698,-10.46911044 17.44524,-6.4597595 6.76976,4.127833 21.1784,23.7710915 26.24887,35.7850135 4.19192,9.93232 5.38565,16.653561 4.86078,27.368619 -0.81577,16.653927 -6.36715,27.192168 -28.90823,54.876799 -5.83937,7.17183 -12.13937,16.07325 -14,19.78093 -3.13348,6.24409 -3.38296,7.44183 -3.38296,16.24123 0,9.14532 0.15694,9.81734 4.20363,18 2.312,4.675 6.91793,12.06122 10.23542,16.41382 6.51382,8.54625 8.00496,12.89292 6.04566,17.62309 -3.01162,7.2707 -11.05969,10.04414 -17.59038,6.06182 z m -118.47272,-3.81815 c -7.82615,-6.58527 -19.60644,-25.57237 -24.06088,-38.78058 -1.98491,-5.88562 -2.3496,-8.91036 -2.2908,-19 0.0597,-10.24918 0.43258,-12.95655 2.55551,-18.55612 4.1435,-10.92915 9.10041,-18.66366 23.35622,-36.44388 16.47246,-20.544893 20.76834,-28.365967 20.76834,-37.810838 0,-3.531223 -0.76583,-8.726116 -1.70185,-11.544206 -2.02356,-6.092367 -9.38023,-17.637232 -15.95903,-25.044614 -2.60026,-2.927751 -5.43103,-6.797982 -6.29059,-8.600514 -3.01918,-6.331274 0.51508,-14.2931205 7.34533,-16.54730744 5.72005,-1.88778503 10.13153,-0.01937 16.03409,6.79100094 21.33996,24.6220365 28.89802,46.0380615 23.71333,67.1925895 -2.66954,10.892225 -9.38426,22.176337 -24.25497,40.760569 -15.15976,18.94547 -18.34388,24.04862 -20.66963,33.12692 -2.89566,11.30286 1.52592,24.75515 13.20542,40.1764 3.12413,4.125 6.25483,9.13262 6.95713,11.12805 4.01559,11.4095 -9.49256,20.9065 -18.70762,13.15253 z"
     id="path4138"
     inkscape:connector-curvature="0" />
</svg>
